PathFileType	4	(X/Y/Z)	H:\MAC\Pilotos\MDrajagopal3\Trimmed_runO3.trc
DataRate	CameraRate	NumFrames	NumMarkers	Units	OrigDataRate	OrigDataStartFrame	OrigNumFrames
150.00	150.00	       5	78	mm	150.00	16	       123
Frame#	Time	RACR			LACR			C7			CLAV			RASH			RPSH			LASH			LPSH			RUA1			RUA2			RUA3			RLEL			RMEL			RFAsuperior			RFAradius			RFAulna			LUA1			LUA2			LUA3			LLEL			LMEL			LFAsuperior			LFAradius			LFAulna			RASI			LASI			RPSI			LPSI			RTH1			RTH2			RTH3			RLFC			RMFC			RTB1			RTB2			RTB3			RLMAL			RMMAL			RCAL			RTOE			RMT5			LTH1			LTH2			LTH3			LLFC			LMFC			LTB1			LTB2			LTB3			LLMAL			LMMAL			LCAL			LTOE			LMT5			RSJC			LSJC			RHJC			LHJC			RKJC			LKJC			RAJC			LAJC			REJC			LEJC			Mid_ASIS			Mid_PSIS			RASHv			RPSHv			LPSHv			RLFCv			RMFCv			RLMALv			RMMALv			LLFCv			LMFCv			LLMALv			LMMALv			LASHv			
		X1	Y1	Z1	X2	Y2	Z2	X3	Y3	Z3	X4	Y4	Z4	X5	Y5	Z5	X6	Y6	Z6	X7	Y7	Z7	X8	Y8	Z8	X9	Y9	Z9	X10	Y10	Z10	X11	Y11	Z11	X12	Y12	Z12	X13	Y13	Z13	X14	Y14	Z14	X15	Y15	Z15	X16	Y16	Z16	X17	Y17	Z17	X18	Y18	Z18	X19	Y19	Z19	X20	Y20	Z20	X21	Y21	Z21	X22	Y22	Z22	X23	Y23	Z23	X24	Y24	Z24	X25	Y25	Z25	X26	Y26	Z26	X27	Y27	Z27	X28	Y28	Z28	X29	Y29	Z29	X30	Y30	Z30	X31	Y31	Z31	X32	Y32	Z32	X33	Y33	Z33	X34	Y34	Z34	X35	Y35	Z35	X36	Y36	Z36	X37	Y37	Z37	X38	Y38	Z38	X39	Y39	Z39	X40	Y40	Z40	X41	Y41	Z41	X42	Y42	Z42	X43	Y43	Z43	X44	Y44	Z44	X45	Y45	Z45	X46	Y46	Z46	X47	Y47	Z47	X48	Y48	Z48	X49	Y49	Z49	X50	Y50	Z50	X51	Y51	Z51	X52	Y52	Z52	X53	Y53	Z53	X54	Y54	Z54	X55	Y55	Z55	X56	Y56	Z56	X57	Y57	Z57	X58	Y58	Z58	X59	Y59	Z59	X60	Y60	Z60	X61	Y61	Z61	X62	Y62	Z62	X63	Y63	Z63	X64	Y64	Z64	X65	Y65	Z65	X66	Y66	Z66	X67	Y67	Z67	X68	Y68	Z68	X69	Y69	Z69	X70	Y70	Z70	X71	Y71	Z71	X72	Y72	Z72	X73	Y73	Z73	X74	Y74	Z74	X75	Y75	Z75	X76	Y76	Z76	X77	Y77	Z77	X78	Y78	Z78	

16	0.100	233.71750	1345.03503	-46.86983	299.17688	1388.21875	-377.00076	203.42365	1388.91541	-225.03421	335.42624	1317.01501	-160.12233													175.83888	1243.26294	17.66891	175.91478	1160.06970	17.09556	85.37074	1178.47131	-4.87873	81.75524	1119.66699	28.81586	101.45249	1086.72034	-50.38242	172.82703	1018.00134	51.56873	221.80646	944.07562	50.77955	165.41887	904.72357	79.83389	289.46289	1305.66028	-463.70670	291.85452	1214.15820	-491.02341	201.30882	1224.28931	-490.28873	249.10083	1157.12854	-532.00806	181.35948	1129.19897	-472.96292	344.61282	1099.74548	-449.16336	372.32587	1077.09155	-374.70605	388.43802	1019.92828	-416.98419	285.39648	873.39075	-134.95979	293.95746	866.94818	-364.03394	115.93298	904.43494	-215.25226	119.70409	908.24121	-298.06525	207.37683	760.07526	-86.52110	206.01700	597.63208	-139.76944	278.77701	578.97107	-116.07784							346.11649	329.19583	-201.78592	258.06778	306.54745	-143.36298	280.99606	184.27617	-189.06596							165.02357	41.00399	-265.10291	320.52829	30.48953	-182.12207	369.39804	32.85850	-218.39662	192.32278	781.61108	-428.92889	125.52300	636.72809	-406.82675	167.82829	555.32343	-432.01480							85.59737	351.29562	-381.77542	-12.53974	432.33179	-406.60510	-95.41576	324.39236	-366.02002							-221.88193	370.96136	-284.21420	-245.40991	183.74165	-337.87967	-266.99039	217.12842	-364.22537																									91.60387	1103.19360	-10.78328	215.23015	1143.16370	-502.48547	289.67697	870.16949	-249.49686	117.81853	906.33807	-256.65875	281.99765	1217.00354	-8.34206	194.55174	1291.80383	-14.64015	354.50287	1371.48120	-408.32416	275.70450	471.85263	-122.98707	340.68689	472.36816	-243.11981	232.15395	49.88998	-184.03873	265.54663	62.55752	-268.46075	169.15495	490.91049	-465.39291	196.77945	457.99854	-339.41602	-215.72238	295.25906	-346.22229	-161.02966	248.94185	-288.57031	429.66476	1304.55933	-422.52185	
17	0.107	252.71928	1336.49890	-42.97097	315.05865	1384.49097	-376.40137	219.99855	1383.86243	-222.48320	353.57919	1310.35815	-159.02507													198.17149	1229.87537	20.63116	200.01257	1147.05469	19.18747	108.72190	1162.77820	0.04477	107.45918	1103.51123	32.14765	126.54461	1071.50830	-47.99006	202.77065	1005.73608	53.00357	254.44588	935.01599	51.09253	200.43604	893.04822	80.55451	303.07480	1301.33154	-463.31830	303.29276	1208.30981	-489.04974	213.04913	1221.50879	-488.68777	260.16858	1153.96094	-531.71039	192.65021	1126.93140	-472.08768	354.99646	1089.85083	-452.07687	383.12320	1063.83154	-378.80435	395.81604	1007.49115	-422.77594	299.94977	870.30792	-133.10727	311.17871	861.89136	-360.52109	131.70049	901.99054	-217.62151	134.55510	903.86298	-299.71368	220.38460	759.14563	-86.14864	218.98595	597.36151	-138.90097	292.33334	578.68451	-114.13815							356.11072	328.62045	-204.99666	269.73218	306.43958	-142.98061	286.27328	184.41281	-188.80209							165.15099	43.73264	-265.38315	369.59412	32.77654	-219.85457	320.58194	30.55212	-183.11270	212.96048	775.37665	-428.78528	150.59521	627.79041	-407.64133	195.79471	548.03082	-432.20999							117.23405	347.61716	-381.86435	20.44967	429.72891	-407.80276	-64.52769	325.23199	-365.56161							-190.67285	375.22360	-283.79422	-216.14169	189.04327	-340.08453	-236.97310	223.35246	-366.61078																									117.00190	1087.50977	-7.92120	226.40939	1140.44617	-501.89902	305.56424	866.09967	-246.81418	133.12779	902.92676	-258.66760	304.19662	1206.70544	-8.65433	214.89323	1279.12976	-11.68995	369.52106	1366.61877	-408.98331	288.12790	470.65302	-121.55447	354.14691	470.76901	-241.12172	238.83984	50.78788	-185.74098	268.97067	63.96426	-271.30457	200.15497	484.10172	-465.77365	227.13637	451.99490	-339.45007	-184.84755	297.16672	-344.45880	-130.73662	250.97366	-286.16187	443.04590	1297.57825	-421.50955	
18	0.113	271.71765	1328.95801	-39.60104	331.12411	1381.18372	-375.78278	236.99471	1380.70825	-219.93036	371.69583	1304.73853	-158.39833													221.03357	1216.04907	23.31273	224.96751	1134.19360	20.84085	133.22601	1146.94421	5.20989	133.99605	1087.41003	35.42214	152.15749	1056.20911	-45.74509	233.79883	993.88574	53.89917	288.61935	926.45581	51.01075	236.68652	881.91278	80.57893	317.10150	1297.67139	-462.84238	314.66470	1202.06311	-486.84232	225.21155	1219.11267	-487.40640	271.10001	1150.92395	-531.27954	204.18398	1125.01050	-471.22800	365.18735	1079.89954	-455.43060	393.29541	1050.41028	-383.47299	402.48648	995.14673	-429.65494	314.88565	868.74054	-131.66656	328.48456	857.18799	-358.61316	147.33656	900.46948	-219.24661	151.47371	899.38275	-301.18835	233.12712	757.84460	-85.84100	231.67148	595.75055	-137.56296	305.68842	577.56622	-111.85275							365.03976	326.11621	-205.65727	279.89331	305.81519	-141.75143	289.68417	183.97772	-187.54935							165.23657	46.02396	-266.10461	368.86917	32.62127	-219.15993	319.96887	30.41306	-183.37143	233.18539	769.41907	-428.30252	176.10178	619.39496	-408.00012	224.42043	541.75531	-432.20477							149.94164	344.36169	-381.34235	54.64627	426.86087	-409.61932	-32.28051	325.81857	-365.39801							-158.93593	378.83005	-284.15131	-185.39034	193.42690	-342.03983	-205.01964	228.15343	-369.04706																									143.07677	1071.80957	-5.16148	237.64198	1137.96716	-501.25375	321.68512	862.96423	-245.13986	149.40514	899.92609	-260.21750	326.55652	1196.23926	-9.97834	235.28050	1266.08704	-8.99045	385.00299	1362.21252	-409.42276	300.50055	469.01035	-119.10200	367.06332	468.24554	-238.36499	240.26192	51.59407	-186.10568	268.51892	64.82006	-272.29865	231.63060	477.94388	-465.89255	258.53796	446.61307	-339.35852	-152.91190	299.05157	-343.60052	-99.60806	253.64398	-283.95844	456.49716	1290.69043	-419.55167	
19	0.120	290.21033	1322.92688	-37.18309	347.58527	1378.43665	-374.69296	255.24991	1378.34729	-217.08273	389.11893	1300.94678	-158.40300													246.58023	1201.89221	24.04029	251.02451	1122.27917	22.08379	159.91103	1131.74744	11.06901	162.37782	1071.61755	38.48691	178.58212	1041.34229	-43.54464	265.83603	982.75879	54.21434	323.29498	918.56793	50.01381	273.42313	871.56512	79.99519	331.54379	1295.49268	-461.92609	326.21921	1196.78247	-484.48160	238.38185	1217.83862	-486.32233	282.17755	1148.38318	-530.88904	216.02573	1123.58850	-470.39029	375.21036	1070.03699	-459.32382	402.88602	1037.00549	-388.48038	408.74918	983.13440	-436.93240	329.65317	867.17755	-130.54716	345.45044	852.83966	-357.19766	162.94571	898.79340	-220.53688	167.48767	897.32983	-303.03033	245.98923	756.70099	-85.61859	244.73303	593.02484	-136.28244	319.27652	575.14606	-110.29771							373.21353	322.32263	-203.48427	287.46204	304.78860	-140.24467	292.04630	182.78868	-187.08163							165.23729	47.99499	-266.25687	319.77490	30.38992	-183.77440	369.05145	32.44933	-219.34531	253.00504	764.00861	-427.47858	201.99382	612.42438	-407.98755	253.57709	537.41821	-432.12042							183.44673	341.53461	-380.08597	89.40759	423.75494	-411.79501	0.92888	326.07285	-365.47989							-127.03001	381.91949	-285.39117	-152.65787	196.64247	-344.42953	-171.24582	231.55107	-371.83273																									170.47998	1056.47986	-2.52887	249.10164	1135.98584	-500.63968	337.55179	860.00861	-243.87241	165.21669	898.06165	-261.78360	350.64240	1183.52124	-14.29237	258.72617	1251.78015	-9.33529	400.76312	1359.02344	-408.98883	313.78943	467.69565	-116.43660	380.24005	466.00079	-235.75255	237.59055	52.77307	-187.24788	266.59641	65.80266	-273.22174	263.20712	472.80542	-465.81702	290.57321	442.21176	-339.20102	-120.13142	300.31931	-343.48935	-67.76366	256.39844	-281.93530	470.05896	1285.06201	-416.55298	
20	0.127	309.09216	1317.55115	-35.73070	364.30542	1376.22058	-373.16031	274.09500	1376.56689	-214.55742	406.85068	1297.35327	-159.05920													273.01849	1189.50989	24.88312	278.94672	1112.01331	22.71200	188.05730	1117.44324	16.87063	192.03137	1057.35999	41.02352	206.47745	1027.88538	-41.76204	298.82028	972.70367	54.01687	358.56808	911.75085	48.26836	310.87189	862.39429	78.69867	346.13724	1294.48108	-460.51682	338.81296	1194.25854	-482.14935	252.54445	1217.88367	-485.08957	293.60403	1146.71802	-530.03168	228.01591	1122.95703	-469.33334	385.03732	1060.47510	-463.58609	411.58459	1023.99365	-393.98621	414.19385	971.94830	-444.75824	343.43570	864.59741	-129.44196	362.24994	848.67523	-356.09079	178.42993	897.89612	-221.80659	184.34120	895.62494	-304.98962	258.41565	755.80029	-85.31457	257.49750	590.54071	-135.64810	332.28262	571.84363	-109.48522							380.71762	317.98953	-199.83940	293.19769	302.72675	-138.96019	295.27444	180.18277	-186.81200							165.06721	49.96846	-265.84866	319.51141	30.27167	-183.55981	369.02234	32.59532	-219.75377	272.41202	759.52716	-426.47757	227.85617	607.08136	-407.54196	283.37503	534.33038	-431.73074							217.86008	339.16519	-378.57977	124.20025	421.15088	-413.65295	34.71889	326.07697	-365.89462							-94.17977	383.77670	-287.53363	-118.10754	198.66431	-347.03287	-136.03667	233.48628	-374.71915																									199.25441	1042.62268	-0.36926	260.80997	1134.83752	-499.68250	352.84283	856.63629	-242.76637	181.38557	896.76050	-263.39810	375.19772	1173.82971	-19.26833	282.15134	1239.62097	-9.11303	416.10339	1357.18030	-407.56998	326.61453	466.72647	-114.57101	393.49567	464.55554	-233.63844	236.66084	52.58888	-188.68953	268.12277	65.24914	-273.85101	294.76453	469.02054	-464.94150	322.57559	439.45807	-338.17758	-86.25318	300.33020	-343.87125	-34.70053	257.93585	-280.58328	483.84198	1281.63110	-413.33368	
